<?xml version="1.0" standalone="no"?>
<!DOCTYPE svg PUBLIC "-//W3C//DTD SVG 20010904//EN"
 "http://www.w3.org/TR/2001/REC-SVG-20010904/DTD/svg10.dtd">
<svg version="1.0" xmlns="http://www.w3.org/2000/svg"
 width="800.000000pt" height="800.000000pt" viewBox="0 0 800.000000 800.000000"
 preserveAspectRatio="xMidYMid meet">
<metadata>
Created by potrace 1.11, written by Peter Selinger 2001-2013
</metadata>
<g transform="translate(0.000000,800.000000) scale(0.100000,-0.100000)"
fill="#000000" stroke="none">
<path d="M695 6373 c-83 -17 -205 -58 -254 -85 -193 -107 -321 -184 -321 -193
0 -6 17 -40 38 -76 89 -149 182 -310 182 -313 0 -3 38 -70 90 -156 22 -37 288
-499 313 -544 16 -28 50 -87 76 -131 68 -114 103 -175 126 -217 17 -31 199
-344 225 -388 12 -20 253 -438 284 -493 29 -51 352 -610 377 -652 10 -16 26
-46 37 -65 11 -19 100 -174 199 -345 99 -170 205 -355 237 -410 32 -55 61
-107 66 -115 56 -93 90 -151 90 -155 0 -3 11 -24 26 -46 14 -22 34 -57 46 -77
81 -146 192 -332 199 -332 5 0 53 26 106 58 54 32 105 62 113 66 129 62 298
214 381 342 129 197 192 483 153 694 -3 19 -8 46 -11 60 -17 97 -61 203 -139
340 -30 52 -59 102 -64 110 -4 8 -27 46 -49 83 -23 38 -41 70 -41 72 0 4 -59
106 -225 390 -29 50 -89 155 -135 235 -45 80 -111 192 -145 250 -34 58 -64
112 -68 120 -4 8 -17 31 -28 50 -12 19 -82 141 -157 270 -74 129 -158 273
-185 320 -48 83 -67 114 -106 183 -94 167 -117 207 -136 237 -12 19 -58 98
-103 175 -75 133 -93 163 -143 253 -117 208 -340 387 -570 457 -146 44 -347
56 -484 28z"/>
<path d="M3269 6386 c-2 -2 -20 -7 -39 -10 -151 -25 -229 -57 -465 -194 -71
-41 -132 -76 -134 -78 -2 -2 50 -97 117 -211 66 -114 129 -224 140 -243 10
-19 84 -147 164 -285 216 -373 593 -1025 616 -1065 29 -53 191 -333 201 -350
5 -8 55 -94 110 -190 56 -96 108 -186 116 -200 12 -20 102 -176 205 -355 9
-16 59 -102 110 -190 51 -88 133 -230 182 -315 49 -85 93 -162 98 -170 9 -14
39 -66 92 -161 30 -53 62 -108 196 -339 56 -96 137 -237 179 -312 64 -112 81
-136 96 -132 10 3 53 26 95 51 42 25 102 59 132 76 230 125 409 342 484 589
72 232 57 483 -41 699 -17 36 -156 283 -310 550 -154 266 -290 500 -300 519
-11 19 -46 80 -78 135 -32 55 -91 157 -131 227 -40 70 -85 145 -99 167 -14 22
-25 43 -25 45 0 3 -14 29 -31 58 -18 29 -64 109 -104 178 -40 69 -141 244
-225 390 -84 146 -164 285 -178 310 -25 45 -56 98 -79 135 -7 11 -30 52 -52
90 -126 224 -242 351 -409 448 -161 94 -285 128 -483 133 -80 3 -147 2 -150 0z"/>
<path d="M7138 6385 c-1 -1 -36 -5 -76 -9 -41 -3 -77 -8 -80 -10 -4 -2 -23 -7
-42 -10 -125 -20 -295 -105 -414 -207 -81 -70 -146 -150 -211 -257 -116 -193
-330 -571 -356 -627 -163 -358 -80 -798 203 -1075 78 -77 136 -118 303 -214
138 -79 151 -85 163 -69 16 22 112 183 112 188 0 2 29 54 65 115 36 61 76 130
89 153 13 23 182 317 376 652 575 995 620 1073 620 1082 0 10 -245 154 -331
195 -85 41 -221 77 -313 84 -44 3 -86 7 -93 9 -6 2 -13 2 -15 0z"/>
</g>
</svg>
