<svg width="70" height="44" viewBox="0 0 70 44" fill="none" xmlns="http://www.w3.org/2000/svg">
<path fill-rule="evenodd" clip-rule="evenodd" d="M2 40.5762C5.74 41.0362 9.418 41.2542 13.216 41.2542C18.73 41.2542 23.674 40.7942 28.912 40.3142C34.198 39.8342 39.666 39.3342 45.808 39.3342C49.894 39.3342 53.896 39.5542 58 39.9962V12.0142C53.896 11.5542 49.902 11.3342 45.818 11.3342C39.77 11.3342 34.35 11.8342 29.108 12.3162C24.058 12.7762 18.836 13.2542 13.234 13.2542C9.43 13.2542 5.744 13.0362 2 12.5942V40.5762ZM13.216 43.2542C9.036 43.2542 4.998 42.9962 0.87 42.4562C0.372 42.3942 0 41.9562 0 41.4562V11.4562C0 11.1742 0.124 10.8942 0.34 10.6962C0.556 10.5142 0.838 10.4142 1.13 10.4562C5.176 10.9942 9.136 11.2542 13.234 11.2542C18.746 11.2542 23.69 10.7942 28.924 10.3142C34.21 9.83423 39.678 9.33423 45.818 9.33423C50.274 9.33423 54.624 9.59423 59.12 10.1342C59.622 10.1962 60 10.6162 60 11.1162V41.1342C60 41.4142 59.878 41.6742 59.664 41.8742C59.45 42.0542 59.166 42.1542 58.88 42.1162C54.46 41.5762 50.184 41.3342 45.808 41.3342C39.758 41.3342 34.336 41.8342 29.094 42.3162C24.044 42.7762 18.822 43.2542 13.216 43.2542Z" fill="#5A6BF7"/>
<path fill-rule="evenodd" clip-rule="evenodd" d="M63 38.0742C62.448 38.0742 62 37.6342 62 37.0762V7.57619C51.588 6.29419 43.454 7.09419 34.854 7.93419C26.098 8.79419 17.044 9.67419 5.37601 8.21419C4.82801 8.13419 4.43801 7.63419 4.50801 7.09419C4.57601 6.53619 5.07401 6.15419 5.62601 6.21419C17.072 7.65419 26.014 6.79419 34.66 5.95619C43.22 5.11619 52.074 4.23619 63.13 5.69619C63.628 5.75419 64 6.19619 64 6.69619V37.0762C64 37.6342 63.552 38.0742 63 38.0742Z" fill="#5A6BF7"/>
<path fill-rule="evenodd" clip-rule="evenodd" d="M69 34.0762C68.448 34.0762 68 33.6342 68 33.0762V2.6162C56.504 1.3342 48.05 2.2942 39.862 3.2342C31.542 4.1962 22.94 5.1742 11.376 3.7362C10.828 3.6562 10.438 3.1542 10.508 2.6162C10.576 2.0542 11.07 1.6742 11.626 1.7342C22.95 3.1742 31.052 2.2362 39.634 1.2542C48.146 0.276205 56.942 -0.723795 69.12 0.736205C69.622 0.794205 70 1.2362 70 1.7342V33.0762C70 33.6342 69.552 34.0762 69 34.0762Z" fill="#5A6BF7"/>
<path fill-rule="evenodd" clip-rule="evenodd" d="M13.32 38.2541C10.732 38.2541 8.20604 38.1561 5.59404 37.9561C5.04404 37.8941 4.63404 37.4141 4.67804 36.8741C4.72404 36.3161 5.19204 35.9141 5.75604 35.9561C8.31204 36.1541 10.786 36.2541 13.32 36.2541C13.874 36.2541 14.32 36.7141 14.32 37.2541C14.32 37.8161 13.874 38.2541 13.32 38.2541Z" fill="#5A6BF7"/>
<path fill-rule="evenodd" clip-rule="evenodd" d="M53.176 16.6342C53.15 16.6342 53.124 16.6342 53.096 16.6342C50.56 16.4142 48.084 16.3342 45.528 16.3342C44.974 16.3342 44.528 15.8742 44.528 15.3342C44.528 14.7762 44.974 14.3342 45.528 14.3342C48.138 14.3342 50.666 14.4342 53.256 14.6342C53.806 14.6742 54.216 15.1542 54.172 15.7142C54.13 16.2362 53.692 16.6342 53.176 16.6342Z" fill="#5A6BF7"/>
<path fill-rule="evenodd" clip-rule="evenodd" d="M28.28 31.5542C25.972 31.5542 24.422 30.1962 24.422 28.1742C24.422 27.6342 24.87 27.1742 25.422 27.1742C25.974 27.1742 26.422 27.6342 26.422 28.1742C26.422 29.4342 27.72 29.5542 28.28 29.5542C28.838 29.5542 30.136 29.4342 30.136 28.1742C30.136 27.4342 29.982 27.2762 28.292 26.4562L27.378 25.9942C25.726 25.1742 24.422 24.5362 24.422 22.4742C24.422 20.4742 26.008 19.0762 28.28 19.0762C30.564 19.0762 32.098 20.4342 32.098 22.4742C32.098 23.0142 31.65 23.4742 31.098 23.4742C30.544 23.4742 30.098 23.0142 30.098 22.4742C30.098 21.1962 28.826 21.0762 28.28 21.0762C27.844 21.0762 26.422 21.1742 26.422 22.4742C26.422 23.2362 26.578 23.3742 28.264 24.1962L29.176 24.6562C30.832 25.4742 32.136 26.1162 32.136 28.1742C32.136 30.1962 30.586 31.5542 28.28 31.5542Z" fill="#5A6BF7"/>
<path fill-rule="evenodd" clip-rule="evenodd" d="M28.282 20.0742C27.728 20.0742 27.282 19.6342 27.282 19.0762V17.0742C27.282 16.5142 27.728 16.0762 28.282 16.0762C28.834 16.0762 29.282 16.5142 29.282 17.0742V19.0762C29.282 19.6342 28.834 20.0742 28.282 20.0742Z" fill="#5A6BF7"/>
<path fill-rule="evenodd" clip-rule="evenodd" d="M28.282 34.0762C27.728 34.0762 27.282 33.6342 27.282 33.0762V31.0762C27.282 30.5142 27.728 30.0762 28.282 30.0762C28.834 30.0762 29.282 30.5142 29.282 31.0762V33.0762C29.282 33.6342 28.834 34.0762 28.282 34.0762Z" fill="#5A6BF7"/>
</svg>
