<svg width="49" height="59" viewBox="0 0 49 59" fill="none" xmlns="http://www.w3.org/2000/svg">
<path fill-rule="evenodd" clip-rule="evenodd" d="M4.38648 21.9292C3.48096 21.9292 1.96 22.2218 1.96 24.1338V31.45C1.96 33.3425 3.48096 33.6351 4.38648 33.6351H7.84V21.9292H4.38648ZM8.82 35.5882H4.38648C1.76204 35.5882 0 33.9279 0 31.4501V24.1339C0 21.6366 1.76204 19.9783 4.38648 19.9783H8.82C9.36096 19.9783 9.8 20.4075 9.8 20.9557V34.6107C9.8 35.157 9.36096 35.5882 8.82 35.5882Z" fill="#5A6BF7"/>
<path fill-rule="evenodd" clip-rule="evenodd" d="M35.5955 57.0469H29.3999V55.0959H35.5955C36.9439 55.0959 39.1999 53.1469 39.1999 51.9763V33.635H41.1599V51.9763C41.1599 54.376 37.8436 57.0469 35.5955 57.0469Z" fill="#5A6BF7"/>
<path fill-rule="evenodd" clip-rule="evenodd" d="M39.9095 28.1333C39.5352 28.1333 39.1784 27.9206 39.0158 27.548C38.3298 26.0477 37.9084 24.9141 37.73 24.1162C36.7382 19.666 33.4141 9.26716 23.9865 9.26716C14.5648 9.26716 11.2367 19.666 10.2449 24.1162C10.2038 24.3093 10.194 24.5044 10.1763 24.7405C10.1332 25.3238 10.0783 26.0652 9.71963 26.9041C9.50403 27.3919 8.93367 27.628 8.42995 27.4114C7.93407 27.1987 7.70671 26.6115 7.92035 26.1257C8.14771 25.597 8.18495 25.0897 8.22219 24.602C8.24571 24.2722 8.27119 23.9581 8.32999 23.7065C10.6448 13.2882 16.3523 7.31616 23.9865 7.31616C31.6246 7.31616 37.3302 13.2882 39.6449 23.7065C39.7449 24.1532 40.0271 25.0507 40.8013 26.7481C41.0248 27.2358 40.8052 27.8211 40.3113 28.0377C40.18 28.0962 40.0448 28.1333 39.9095 28.1333Z" fill="#5A6BF7"/>
<path fill-rule="evenodd" clip-rule="evenodd" d="M40.1801 20.9556C39.6391 20.9556 39.2001 20.5245 39.2001 19.9782V16.5659C39.2001 8.50633 32.6066 1.95099 24.5001 1.95099C16.3935 1.95099 9.80009 8.50633 9.80009 16.5659V19.9782C9.80009 20.5245 9.36105 20.9556 8.82009 20.9556C8.27913 20.9556 7.84009 20.5245 7.84009 19.9782V16.5659C7.84009 7.43524 15.3136 0 24.5001 0C33.6866 0 41.1601 7.43524 41.1601 16.5659V19.9782C41.1601 20.5245 40.7211 20.9556 40.1801 20.9556Z" fill="#5A6BF7"/>
<path fill-rule="evenodd" clip-rule="evenodd" d="M23.52 48.2091C17.0344 48.2091 11.76 42.3776 11.76 35.196V27.7822C11.76 27.2359 12.199 26.8087 12.74 26.8087C13.281 26.8087 13.72 27.2359 13.72 27.7822V35.196C13.72 41.4021 18.0242 46.2581 23.52 46.2581C28.9237 46.2581 33.32 41.3026 33.32 35.196V25.8312C33.32 25.2849 33.7591 24.8557 34.3 24.8557C34.841 24.8557 35.28 25.2849 35.28 25.8312V35.196C35.28 42.3776 30.0056 48.2091 23.52 48.2091Z" fill="#5A6BF7"/>
<path fill-rule="evenodd" clip-rule="evenodd" d="M41.16 33.6351H43.5864C45.2211 33.6351 47.04 32.7377 47.04 31.45V24.1338C47.04 22.8286 45.2211 21.9292 43.5864 21.9292H41.16V33.6351ZM43.5864 35.5882H40.18C39.639 35.5882 39.2 35.157 39.2 34.6107V20.9557C39.2 20.4075 39.639 19.9783 40.18 19.9783H43.5864C46.2481 19.9783 49 21.5196 49 24.1339V31.4501C49 34.0469 46.2481 35.5882 43.5864 35.5882Z" fill="#5A6BF7"/>
<path fill-rule="evenodd" clip-rule="evenodd" d="M20.3116 53.147C19.6119 53.147 18.8416 54.1595 18.8416 55.096C18.8416 56.0344 19.6119 57.047 20.3116 57.047H27.6616C28.3633 57.047 29.1316 56.0344 29.1316 55.096C29.1316 54.1595 28.3633 53.147 27.6616 53.147H20.3116ZM27.6616 59H20.3116C18.3496 59 16.8816 56.932 16.8816 55.0961C16.8816 53.2621 18.3496 51.1941 20.3116 51.1941H27.6616C29.6255 51.1941 31.0916 53.2621 31.0916 55.0961C31.0916 56.932 29.6255 59 27.6616 59Z" fill="#5A6BF7"/>
<path fill-rule="evenodd" clip-rule="evenodd" d="M38.3806 27.5481C35.1858 27.5481 29.4156 23.6481 26.85 19.9783C23.5787 27.314 9.44712 27.5481 9.2864 27.5481C8.74544 27.5481 8.3064 27.1013 8.3064 26.5746C8.3064 26.0263 8.74544 25.5971 9.2864 25.5971C9.44908 25.5971 25.5603 25.2069 25.5603 16.7025C25.5603 16.1738 25.9993 15.7251 26.5403 15.7251C27.0812 15.7251 27.5203 16.1738 27.5203 16.7025C27.5203 19.5276 34.9291 25.5971 38.3806 25.5971C38.9216 25.5971 39.3606 26.0263 39.3606 26.5746C39.3606 27.1013 38.9216 27.5481 38.3806 27.5481Z" fill="#5A6BF7"/>
</svg>
