<svg width="15" height="24" viewBox="0 0 15 24" fill="none" xmlns="http://www.w3.org/2000/svg">
<path fill-rule="evenodd" clip-rule="evenodd" d="M12 18.5556C12 18.8053 11.8167 19 11.5909 19H3.40909C3.18245 19 3 18.8053 3 18.5556V3.44444C3 3.20444 3.18245 3 3.40909 3H11.5909C11.8167 3 12 3.20444 12 3.44444V18.5556ZM7.57818 22.1778C7.06319 22.1778 6.64353 21.7511 6.64353 21.2295C6.64353 20.708 7.06319 20.2812 7.57818 20.2812C8.09318 20.2812 8.51284 20.708 8.51284 21.2295C8.51284 21.7511 8.09318 22.1778 7.57818 22.1778ZM12.8113 0.841309H2.34408C1.36456 0.841309 0.568237 1.69478 0.568237 2.73791V21.7039C0.568237 22.7565 1.36456 23.6005 2.34408 23.6005H12.8113C13.7908 23.6005 14.5881 22.7565 14.5881 21.7039V2.73791C14.5881 1.69478 13.7908 0.841309 12.8113 0.841309Z" fill="white"/>
</svg>
