<svg width="52" height="49" viewBox="0 0 52 49" fill="none" xmlns="http://www.w3.org/2000/svg">
<path fill-rule="evenodd" clip-rule="evenodd" d="M7.36667 33.2505C4.264 33.2505 1.73333 35.8037 1.73333 38.9361V41.561C1.73333 44.6934 4.264 47.2483 7.36667 47.2483H44.6333C47.736 47.2483 50.2667 44.6934 50.2667 41.561V38.9361C50.2667 35.8037 47.736 33.2505 44.6333 33.2505H7.36667ZM44.6333 48.9999H7.36667C3.31067 48.9999 0 45.6558 0 41.5609V38.936C0 34.8412 3.31067 31.4988 7.36667 31.4988H44.6333C48.6893 31.4988 52 34.8412 52 38.936V41.5609C52 45.6558 48.6893 48.9999 44.6333 48.9999Z" fill="#5A6BF7"/>
<path fill-rule="evenodd" clip-rule="evenodd" d="M42.3454 37.8512C41.6174 37.8512 41.0454 38.4286 41.0454 39.1636C41.0454 39.8811 41.6174 40.4761 42.3454 40.4761C43.056 40.4761 43.6454 39.8811 43.6454 39.1636C43.6454 38.4286 43.056 37.8512 42.3454 37.8512ZM42.3453 42.2261C40.664 42.2261 39.312 40.8436 39.312 39.1637C39.312 37.4663 40.664 36.1013 42.3453 36.1013C44.0093 36.1013 45.3787 37.4663 45.3787 39.1637C45.3787 40.8436 44.0093 42.2261 42.3453 42.2261Z" fill="#5A6BF7"/>
<path fill-rule="evenodd" clip-rule="evenodd" d="M1.64675 36.6787C1.61209 36.6787 1.57742 36.6787 1.54275 36.6787C1.07475 36.6087 0.728086 36.1712 0.797419 35.6987L4.33342 7.1065C4.88809 3.06414 8.33742 0 12.3934 0H38.6881C42.7441 0 46.2108 3.06414 46.7481 7.12225L50.3361 34.4913C50.3881 34.9655 50.0588 35.403 49.5908 35.473C49.1054 35.543 48.6721 35.2087 48.6028 34.7188L45.0148 7.34974C44.5988 4.16485 41.8774 1.75169 38.6881 1.75169H12.3934C9.20409 1.75169 6.48275 4.14735 6.06675 7.33399L2.51342 35.9105C2.46142 36.3637 2.08009 36.6787 1.64675 36.6787Z" fill="#5A6BF7"/>
<path fill-rule="evenodd" clip-rule="evenodd" d="M21.0947 23.9042C21.2507 23.9042 21.4067 23.9584 21.5454 24.0284C22.1867 24.4309 22.8974 24.7091 23.6254 24.9034C24.0414 25.0066 24.3187 25.4266 24.2667 25.8641C24.2494 26.7566 24.8387 27.3515 25.5494 27.3515C26.26 27.3515 26.8494 26.7566 26.8494 26.0391C26.8494 26.0216 26.832 25.8483 26.832 25.8483C26.78 25.4109 27.0574 25.0066 27.4734 24.9034C28.2014 24.7091 28.8947 24.4309 29.5534 24.0284C29.9174 23.8009 30.4027 23.8867 30.6627 24.2384C30.6974 24.2716 30.784 24.4116 30.8187 24.4659C31.2 24.8334 32.1014 24.8841 32.5867 24.3959C33.1067 23.8867 33.1067 23.0467 32.5867 22.5392C32.5867 22.5567 32.5 22.5042 32.4307 22.4517C32.1014 22.1717 32.0147 21.6992 32.24 21.316C32.6214 20.6685 32.916 19.9668 33.0894 19.2318C33.2107 18.8136 33.5747 18.5318 34.0254 18.5668L34.1987 19.4768L34.216 18.6018C34.9267 18.6018 35.516 18.0069 35.516 17.2894C35.516 16.5562 34.9267 15.9769 34.216 15.9769C34.1987 15.9769 34.0254 15.9944 34.0254 15.9944C33.592 16.0294 33.2107 15.7494 33.0894 15.3295C32.916 14.5945 32.6214 13.8963 32.24 13.247C32.0147 12.8638 32.1014 12.3721 32.448 12.1096C32.4827 12.0746 32.6214 11.9888 32.656 11.9696C33.1067 11.5146 33.1067 10.6764 32.5867 10.1689C32.1014 9.67716 31.252 9.67716 30.7494 10.1689C30.7667 10.1846 30.732 10.2546 30.6627 10.3246C30.4027 10.6764 29.9174 10.7621 29.5534 10.5364C28.912 10.1496 28.2014 9.85216 27.4734 9.66141C27.0574 9.55467 26.78 9.15393 26.832 8.71645L27.716 8.55895L26.8494 8.5222C26.8494 7.80473 26.26 7.22725 25.5494 7.22725C24.8387 7.22725 24.2494 7.80473 24.2494 8.5397C24.3014 8.97719 24.0414 9.55467 23.6254 9.66141C22.88 9.85216 22.1867 10.1496 21.5454 10.5364C21.164 10.7621 20.6787 10.6571 20.4187 10.3089C20.384 10.2721 20.2974 10.1496 20.28 10.1146C19.8987 9.73141 18.9974 9.67716 18.4947 10.1689C18.252 10.4121 18.1134 10.7446 18.1134 11.0946C18.1134 11.4446 18.252 11.7788 18.4947 12.0221C18.512 12.0046 18.5814 12.0571 18.6507 12.1096C18.9974 12.3721 19.084 12.8638 18.8587 13.247C18.4774 13.8963 18.1827 14.5945 17.992 15.3295C17.888 15.7494 17.5067 16.0469 17.0734 15.9944L16.9174 15.102L16.8827 15.9769C16.172 15.9769 15.5827 16.5562 15.5827 17.2894C15.5827 18.0069 16.172 18.6018 16.8827 18.6018C16.8827 18.5843 17.056 18.5668 17.0734 18.5668C17.4894 18.5318 17.888 18.8136 17.992 19.2318C18.1827 19.9668 18.4774 20.6685 18.8587 21.316C19.084 21.6992 18.9974 22.1717 18.668 22.4517C18.616 22.4692 18.4774 22.5742 18.4427 22.5917C18.252 22.7859 18.1134 23.1184 18.1134 23.4667C18.1134 23.8167 18.252 24.1509 18.4947 24.3959C18.9974 24.9034 19.8467 24.8841 20.332 24.3959C20.332 24.3784 20.3667 24.3084 20.4187 24.2541C20.592 24.0284 20.852 23.9042 21.0947 23.9042ZM25.5494 29.1015C24.0067 29.1015 22.724 27.9115 22.5334 26.4065C22.1 26.2683 21.684 26.0916 21.2854 25.8816C20.1067 26.809 18.3214 26.704 17.2814 25.6366C16.692 25.0591 16.38 24.2891 16.38 23.4667C16.38 22.7667 16.6054 22.121 17.0214 21.5767C16.8307 21.176 16.6574 20.7542 16.5187 20.3168C15.0107 20.1418 13.8494 18.8486 13.8494 17.2894C13.8494 15.7162 15.0107 14.4195 16.5187 14.2462C16.6574 13.8087 16.8307 13.387 17.0214 12.9845C16.6054 12.442 16.38 11.7946 16.38 11.0946C16.38 10.2721 16.7094 9.5039 17.2814 8.92642C18.3387 7.85721 20.124 7.77146 21.2854 8.68143C21.684 8.46969 22.1 8.31394 22.5334 8.1547C22.724 6.64975 23.9894 5.47729 25.5494 5.47729C27.092 5.47729 28.3747 6.64975 28.5654 8.1547C28.9814 8.31394 29.3974 8.46969 29.8134 8.68143C30.9747 7.77146 32.76 7.85721 33.8174 8.92642C34.9094 10.0289 34.996 11.7788 34.06 12.9845C34.268 13.387 34.4414 13.8087 34.58 14.2462C36.088 14.4195 37.2494 15.7162 37.2494 17.2894C37.2494 18.8486 36.088 20.1418 34.58 20.3168C34.4414 20.7542 34.268 21.176 34.06 21.5767C34.996 22.7667 34.9094 24.5166 33.8174 25.6366C32.76 26.704 30.9747 26.7933 29.8134 25.8816C29.3974 26.0916 28.9814 26.2683 28.5654 26.4065C28.3747 27.9115 27.092 29.1015 25.5494 29.1015Z" fill="#5A6BF7"/>
<path fill-rule="evenodd" clip-rule="evenodd" d="M25.5494 15.2436C24.4401 15.2436 23.5214 16.1536 23.5214 17.2893C23.5214 18.411 24.4401 19.3192 25.5494 19.3192C26.6587 19.3192 27.5774 18.411 27.5774 17.2893C27.5774 16.1536 26.6587 15.2436 25.5494 15.2436ZM25.5494 21.0692C23.4694 21.0692 21.7881 19.3717 21.7881 17.2893C21.7881 15.1911 23.4694 13.4919 25.5494 13.4919C27.6121 13.4919 29.3108 15.1911 29.3108 17.2893C29.3108 19.3717 27.6121 21.0692 25.5494 21.0692Z" fill="#5A6BF7"/>
</svg>
