<svg width="50" height="60" viewBox="0 0 50 60" fill="none" xmlns="http://www.w3.org/2000/svg">
<path fill-rule="evenodd" clip-rule="evenodd" d="M42.762 18.9799H6.76196C6.20996 18.9799 5.76196 18.5399 5.76196 17.9799C5.76196 17.4219 6.20996 16.9819 6.76196 16.9819H42.762C43.314 16.9819 43.762 17.4219 43.762 17.9799C43.762 18.5399 43.314 18.9799 42.762 18.9799Z" fill="#5A6BF7"/>
<path fill-rule="evenodd" clip-rule="evenodd" d="M1 59.48C0.448 59.48 0 59.04 0 58.48C0 51.922 7.076 44.98 13.766 44.98H18.762C19.314 44.98 19.762 45.422 19.762 45.98C19.762 46.54 19.314 46.982 18.762 46.982H13.766C8.158 46.982 2 53 2 58.48C2 59.04 1.554 59.48 1 59.48Z" fill="#5A6BF7"/>
<path fill-rule="evenodd" clip-rule="evenodd" d="M11.762 59.98C11.21 59.98 10.762 59.54 10.762 58.982V46.982C10.762 46.422 11.21 45.98 11.762 45.98C12.314 45.98 12.762 46.422 12.762 46.982V58.982C12.762 59.54 12.314 59.98 11.762 59.98Z" fill="#5A6BF7"/>
<path fill-rule="evenodd" clip-rule="evenodd" d="M15.762 59.98C15.21 59.98 14.762 59.54 14.762 58.982V46.982C14.762 46.422 15.21 45.98 15.762 45.98C16.314 45.98 16.762 46.422 16.762 46.982V58.982C16.762 59.54 16.314 59.98 15.762 59.98Z" fill="#5A6BF7"/>
<path fill-rule="evenodd" clip-rule="evenodd" d="M48.642 59.48C48.09 59.48 47.642 59.04 47.642 58.48C47.642 53 41.548 46.982 35.996 46.982H30.762C30.21 46.982 29.762 46.54 29.762 45.98C29.762 45.422 30.21 44.98 30.762 44.98H35.996C42.628 44.98 49.642 51.922 49.642 58.48C49.642 59.04 49.196 59.48 48.642 59.48Z" fill="#5A6BF7"/>
<path fill-rule="evenodd" clip-rule="evenodd" d="M37.762 59.98C37.21 59.98 36.762 59.54 36.762 58.982V46.982C36.762 46.422 37.21 45.98 37.762 45.98C38.314 45.98 38.762 46.422 38.762 46.982V58.982C38.762 59.54 38.314 59.98 37.762 59.98Z" fill="#5A6BF7"/>
<path fill-rule="evenodd" clip-rule="evenodd" d="M33.762 59.98C33.21 59.98 32.762 59.54 32.762 58.982V46.982C32.762 46.422 33.21 45.98 33.762 45.98C34.314 45.98 34.762 46.422 34.762 46.982V58.982C34.762 59.54 34.314 59.98 33.762 59.98Z" fill="#5A6BF7"/>
<path fill-rule="evenodd" clip-rule="evenodd" d="M37.762 17.98C37.21 17.98 36.762 17.54 36.762 16.982V14.02C36.762 7.402 31.38 2 24.762 2C18.144 2 12.762 7.52 12.762 14.3V16.982C12.762 17.54 12.314 17.98 11.762 17.98C11.21 17.98 10.762 17.54 10.762 16.982V14.3C10.762 6.422 17.042 0 24.762 0C32.482 0 38.762 6.3 38.762 14.02V16.982C38.762 17.54 38.314 17.98 37.762 17.98Z" fill="#5A6BF7"/>
<path fill-rule="evenodd" clip-rule="evenodd" d="M24.762 48.482C18.034 48.482 12.762 43.1 12.762 36.24V33.382C10.762 32.942 10.762 31.12 10.762 29.98V24.98C10.762 23.84 10.762 22.022 12.762 21.58V18.98C12.762 18.422 13.21 17.98 13.762 17.98C14.314 17.98 14.762 18.422 14.762 18.98V22.48C14.762 23.04 14.314 23.48 13.762 23.48C12.79 23.48 12.762 23.522 12.762 24.98V29.98C12.762 31.462 12.78 31.48 13.762 31.48C14.314 31.48 14.762 31.922 14.762 32.48V36.24C14.762 41.98 19.154 46.48 24.762 46.48C30.37 46.48 34.762 41.98 34.762 36.24V32.48C34.762 31.922 35.21 31.48 35.762 31.48C36.744 31.48 36.762 31.462 36.762 29.98V24.98C36.762 23.522 36.734 23.48 35.762 23.48C35.21 23.48 34.762 23.04 34.762 22.48V18.98C34.762 18.422 35.21 17.98 35.762 17.98C36.314 17.98 36.762 18.422 36.762 18.98V21.58C38.762 22.022 38.762 23.84 38.762 24.98V29.98C38.762 31.12 38.762 32.942 36.762 33.382V36.24C36.762 43.1 31.49 48.482 24.762 48.482Z" fill="#5A6BF7"/>
<path fill-rule="evenodd" clip-rule="evenodd" d="M21.762 17.9801C21.21 17.9801 20.762 17.5401 20.762 16.9821V6.24006C20.762 4.72206 19.874 3.86206 18.324 3.86206C17.772 3.86206 17.324 3.40006 17.324 2.86006C17.324 2.30006 17.772 1.86206 18.324 1.86206C20.978 1.86206 22.762 3.62006 22.762 6.24006V16.9821C22.762 17.5401 22.314 17.9801 21.762 17.9801Z" fill="#5A6BF7"/>
<path fill-rule="evenodd" clip-rule="evenodd" d="M27.762 17.9801C27.21 17.9801 26.762 17.5401 26.762 16.9821V6.24006C26.762 3.70006 28.76 1.86206 31.512 1.86206C32.064 1.86206 32.512 2.30006 32.512 2.86006C32.512 3.40006 32.064 3.86206 31.512 3.86206C30.142 3.86206 28.762 4.58006 28.762 6.24006V16.9821C28.762 17.5401 28.314 17.9801 27.762 17.9801Z" fill="#5A6BF7"/>
</svg>
