<svg width="25" height="17" viewBox="0 0 25 17" fill="none" xmlns="http://www.w3.org/2000/svg">
<path fill-rule="evenodd" clip-rule="evenodd" d="M21.7501 14.2121C21.648 14.316 21.5063 14.3727 21.3657 14.3727C21.2396 14.3727 21.1146 14.3255 21.0146 14.2499L15.6834 9.83936L15.2824 10.237C14.5438 10.9632 13.5553 11.3599 12.5001 11.3599C11.4438 11.3599 10.4563 10.9632 9.71881 10.237L9.31569 9.83936L3.9886 14.2499C3.8886 14.3255 3.76256 14.3727 3.63652 14.3727C3.4959 14.3727 3.35527 14.316 3.25215 14.2121C3.0584 14.0242 3.07298 13.7305 3.28548 13.551L8.61256 9.14141L3.25215 3.82325C3.0584 3.63436 3.07298 3.33213 3.28548 3.15363C3.49694 2.98269 3.82715 2.99213 4.02194 3.19047L10.4865 9.59474C11.5594 10.6516 13.4386 10.6516 14.5136 9.59474L20.9678 3.20086C21.1615 3.00252 21.4907 2.99213 21.7032 3.16213C21.9157 3.34252 21.9303 3.6438 21.7365 3.83269L16.3865 9.14141L21.7167 13.551C21.9292 13.721 21.9449 14.0242 21.7501 14.2121ZM22.3958 0H2.60417C1.16771 0 0 1.05683 0 2.36017V14.6379C0 15.9413 1.16771 17 2.60417 17H22.3958C23.8312 17 25 15.9413 25 14.6379V2.36017C25 1.05683 23.8312 0 22.3958 0Z" fill="white"/>
</svg>
