<svg width="16" height="23" viewBox="0 0 16 23" fill="none" xmlns="http://www.w3.org/2000/svg">
<path fill-rule="evenodd" clip-rule="evenodd" d="M7.94458 9.95708C6.39866 9.95708 5.14061 8.68067 5.14061 7.11218C5.14061 5.54274 6.39866 4.26728 7.94458 4.26728C9.4905 4.26728 10.7485 5.54274 10.7485 7.11218C10.7485 8.68067 9.4905 9.95708 7.94458 9.95708ZM7.94457 0C3.56384 0 0 3.61492 0 8.06055C0 10.9026 1.69733 13.0031 2.97314 14.3355C5.0892 16.5469 7.45855 21.7237 7.47725 22.4425C7.47725 22.7042 7.68567 22.9166 7.94457 22.9166C8.19506 22.9166 8.40069 22.7165 8.4119 22.4633V22.4595C8.4119 22.4595 8.4119 22.4586 8.4119 22.4576C8.4119 22.4557 8.4119 22.4557 8.4119 22.4557V22.4538C8.4119 22.451 8.4119 22.451 8.4119 22.451V22.4425C8.4119 21.7426 9.81762 16.9395 12.4496 14.6968C14.7003 12.7793 15.8891 10.4854 15.8891 8.06055C15.8891 3.61492 12.3253 0 7.94457 0Z" fill="white"/>
</svg>
