<svg width="60" height="50" viewBox="0 0 60 50" fill="none" xmlns="http://www.w3.org/2000/svg">
<path fill-rule="evenodd" clip-rule="evenodd" d="M2 48H24V2H2V48ZM25 50H1C0.448 50 0 49.56 0 49V1C0 0.442 0.448 0 1 0H25C25.552 0 26 0.442 26 1V49C26 49.56 25.552 50 25 50Z" fill="#5A6BF7"/>
<path fill-rule="evenodd" clip-rule="evenodd" d="M6 19H20V6H6V19ZM21 21H5C4.448 21 4 20.7329 4 20.3929V4.60714C4 4.26836 4.448 4 5 4H21C21.552 4 22 4.26836 22 4.60714V20.3929C22 20.7329 21.552 21 21 21Z" fill="#5A6BF7"/>
<path fill-rule="evenodd" clip-rule="evenodd" d="M9 26H17V24H9V26ZM17.4444 27H8.55556C8.24889 27 8 26.9371 8 26.8571V23.1429C8 23.0631 8.24889 23 8.55556 23H17.4444C17.7511 23 18 23.0631 18 23.1429V26.8571C18 26.9371 17.7511 27 17.4444 27Z" fill="#5A6BF7"/>
<path fill-rule="evenodd" clip-rule="evenodd" d="M42.1879 25.6019C41.9459 25.6019 41.6999 25.4999 41.5079 25.3199C41.1039 24.9619 41.0799 24.3199 41.4559 23.9199L44.1559 20.9999L41.4559 18.0799C41.0799 17.6799 41.1039 17.0419 41.5079 16.6799C41.9119 16.2999 42.5439 16.3199 42.9199 16.7199L46.2539 20.3199C46.6099 20.7019 46.6099 21.2999 46.2539 21.6799L42.9199 25.2819C42.7219 25.4799 42.4579 25.6019 42.1879 25.6019Z" fill="#5A6BF7"/>
<path fill-rule="evenodd" clip-rule="evenodd" d="M44 22H32C31.448 22 31 21.56 31 21C31 20.442 31.448 20 32 20H44C44.552 20 45 20.442 45 21C45 21.56 44.552 22 44 22Z" fill="#5A6BF7"/>
<path fill-rule="evenodd" clip-rule="evenodd" d="M35.3121 33.6019C35.0441 33.6019 34.7781 33.4799 34.5801 33.2819L31.2441 29.6799C30.8861 29.2999 30.8861 28.7019 31.2421 28.3199L34.5801 24.7199C34.9561 24.3199 35.5881 24.2999 35.9921 24.6799C36.3961 25.0419 36.4201 25.6799 36.0441 26.0799L33.3401 28.9999L36.0441 31.9199C36.4201 32.3199 36.3961 32.9419 35.9921 33.3199C35.8001 33.4999 35.5561 33.6019 35.3121 33.6019Z" fill="#5A6BF7"/>
<path fill-rule="evenodd" clip-rule="evenodd" d="M44 30H32C31.448 30 31 29.56 31 29C31 28.442 31.448 28 32 28H44C44.552 28 45 28.442 45 29C45 29.56 44.552 30 44 30Z" fill="#5A6BF7"/>
<path fill-rule="evenodd" clip-rule="evenodd" d="M48.22 44H32C31.448 44 31 43.56 31 43C31 42.442 31.448 42 32 42H48.22C53.182 42 57.218 37.962 57.218 33.02C57.218 29.82 55.47 26.84 52.654 25.24C52.32 25.042 52.126 24.68 52.152 24.3C52.192 23.74 52.218 23.382 52.218 23.02C52.218 12.542 43.698 4.02002 33.222 4.02002C32.822 4.02002 32.438 4.04202 32.046 4.06002C31.488 4.10202 31.022 3.68002 30.99 3.12202C30.958 2.56002 31.378 2.10202 31.93 2.06002C32.36 2.04202 32.782 2.02002 33.222 2.02002C44.8 2.02002 54.218 11.442 54.218 23.02C54.218 23.3 54.208 23.56 54.19 23.84C57.306 25.862 59.218 29.32 59.218 33.02C59.218 39.08 54.286 44 48.22 44Z" fill="#5A6BF7"/>
</svg>
