<svg width="135" height="44" viewBox="0 0 135 44" fill="none" xmlns="http://www.w3.org/2000/svg">
<path d="M12.18 7.68H7.86V19H4.58V7.68H0.24V4.8H12.18V7.68ZM23.8219 16.12V19H13.8419V4.8H23.6419V7.68H17.1219V10.44H22.7219V13.1H17.1219V16.12H23.8219ZM30.8731 9.72C30.6998 11.52 30.4798 13.0267 30.2131 14.24C29.9598 15.44 29.6065 16.4067 29.1531 17.14C28.6998 17.86 28.1198 18.3733 27.4131 18.68C26.7065 18.9867 25.8265 19.14 24.7731 19.14L24.6731 16.26C25.1531 16.2067 25.5531 16.0933 25.8731 15.92C26.2065 15.7333 26.4865 15.3867 26.7131 14.88C26.9398 14.36 27.1265 13.6267 27.2731 12.68C27.4331 11.7333 27.5865 10.4667 27.7331 8.88L28.0931 4.8H37.3131V19H34.0331V7.68H31.0731L30.8731 9.72ZM50.1305 16.12V19H40.1505V4.8H49.9505V7.68H43.4305V10.44H49.0305V13.1H43.4305V16.12H50.1305ZM63.3817 19V10.5L60.3017 16.68H58.5417L55.4617 10.5V19H52.1817V4.8H55.7417L59.4217 12.22L63.1217 4.8H66.6617V19H63.3817ZM73.3255 4.8H76.2855L81.4655 19H78.1055L77.0055 15.82H72.5855L71.5055 19H68.1455L73.3255 4.8ZM76.4655 13.56L74.8055 8.54L73.1055 13.56H76.4655ZM92.2777 7.68H87.9577V19H84.6777V7.68H80.3377V4.8H92.2777V7.68ZM97.2395 13.9L103.92 4.8H106.36V19H103.08V10.12L96.4795 19H93.9395V4.8H97.2395V13.9ZM112.473 10.44H113.213L117.353 4.8H121.053L115.953 11.66L121.513 19H117.853L113.513 13.42H112.473V19H109.193V4.8H112.473V10.44ZM126.392 4.8H129.352L134.532 19H131.172L130.072 15.82H125.652L124.572 19H121.212L126.392 4.8ZM129.532 13.56L127.872 8.54L126.172 13.56H129.532Z" fill="white"/>
<path d="M0.756 32.52C0.756 31.752 0.888 30.99 1.152 30.234C1.428 29.466 1.824 28.782 2.34 28.182C2.856 27.582 3.492 27.096 4.248 26.724C5.004 26.34 5.862 26.148 6.822 26.148C7.962 26.148 8.934 26.406 9.738 26.922C10.554 27.438 11.154 28.11 11.538 28.938L10.548 29.55C10.344 29.13 10.092 28.776 9.792 28.488C9.504 28.2 9.192 27.966 8.856 27.786C8.52 27.606 8.172 27.48 7.812 27.408C7.452 27.324 7.098 27.282 6.75 27.282C5.982 27.282 5.304 27.438 4.716 27.75C4.128 28.062 3.63 28.47 3.222 28.974C2.826 29.478 2.526 30.048 2.322 30.684C2.118 31.308 2.016 31.944 2.016 32.592C2.016 33.3 2.136 33.978 2.376 34.626C2.628 35.274 2.964 35.85 3.384 36.354C3.816 36.846 4.32 37.242 4.896 37.542C5.484 37.83 6.12 37.974 6.804 37.974C7.164 37.974 7.53 37.932 7.902 37.848C8.286 37.752 8.652 37.608 9 37.416C9.36 37.212 9.69 36.966 9.99 36.678C10.29 36.378 10.542 36.018 10.746 35.598L11.79 36.138C11.586 36.618 11.298 37.044 10.926 37.416C10.554 37.776 10.14 38.082 9.684 38.334C9.228 38.586 8.742 38.778 8.226 38.91C7.722 39.042 7.224 39.108 6.732 39.108C5.856 39.108 5.052 38.916 4.32 38.532C3.588 38.148 2.958 37.65 2.43 37.038C1.902 36.414 1.488 35.712 1.188 34.932C0.9 34.14 0.756 33.336 0.756 32.52ZM22.5458 37.884V39H13.9598V26.22H22.3838V27.336H15.2198V31.944H21.4658V33.006H15.2198V37.884H22.5458ZM24.9286 39V26.22H30.2206C30.7726 26.22 31.2766 26.34 31.7326 26.58C32.2006 26.808 32.6026 27.114 32.9386 27.498C33.2746 27.87 33.5386 28.296 33.7306 28.776C33.9226 29.256 34.0186 29.742 34.0186 30.234C34.0186 30.762 33.9286 31.272 33.7486 31.764C33.5686 32.244 33.3166 32.67 32.9926 33.042C32.6686 33.414 32.2786 33.714 31.8226 33.942C31.3786 34.17 30.8806 34.284 30.3286 34.284H26.1886V39H24.9286ZM26.1886 33.168H30.2746C30.6466 33.168 30.9826 33.09 31.2826 32.934C31.5946 32.766 31.8586 32.55 32.0746 32.286C32.2906 32.01 32.4586 31.698 32.5786 31.35C32.6986 30.99 32.7586 30.618 32.7586 30.234C32.7586 29.838 32.6866 29.466 32.5426 29.118C32.4106 28.758 32.2246 28.446 31.9846 28.182C31.7566 27.918 31.4806 27.714 31.1566 27.57C30.8446 27.414 30.5146 27.336 30.1666 27.336H26.1886V33.168ZM45.5034 35.706C45.5034 36.186 45.4074 36.63 45.2154 37.038C45.0234 37.434 44.7654 37.782 44.4414 38.082C44.1174 38.37 43.7394 38.598 43.3074 38.766C42.8754 38.922 42.4134 39 41.9214 39H35.8914V26.22H42.0474C42.4914 26.22 42.8934 26.316 43.2534 26.508C43.6134 26.7 43.9194 26.952 44.1714 27.264C44.4234 27.564 44.6154 27.912 44.7474 28.308C44.8914 28.692 44.9634 29.082 44.9634 29.478C44.9634 30.126 44.8014 30.72 44.4774 31.26C44.1534 31.788 43.7034 32.184 43.1274 32.448C43.8594 32.664 44.4354 33.066 44.8554 33.654C45.2874 34.242 45.5034 34.926 45.5034 35.706ZM44.2434 35.49C44.2434 35.178 44.1894 34.878 44.0814 34.59C43.9734 34.29 43.8174 34.032 43.6134 33.816C43.4214 33.588 43.1874 33.408 42.9114 33.276C42.6474 33.132 42.3594 33.06 42.0474 33.06H37.1514V37.902H41.9214C42.2454 37.902 42.5454 37.836 42.8214 37.704C43.1094 37.572 43.3554 37.398 43.5594 37.182C43.7754 36.954 43.9434 36.696 44.0634 36.408C44.1834 36.108 44.2434 35.802 44.2434 35.49ZM37.1514 27.318V32.034H41.5434C41.8554 32.034 42.1434 31.968 42.4074 31.836C42.6834 31.704 42.9174 31.53 43.1094 31.314C43.3014 31.098 43.4514 30.852 43.5594 30.576C43.6674 30.288 43.7214 29.988 43.7214 29.676C43.7214 29.352 43.6674 29.046 43.5594 28.758C43.4634 28.47 43.3194 28.224 43.1274 28.02C42.9474 27.804 42.7314 27.636 42.4794 27.516C42.2274 27.384 41.9514 27.318 41.6514 27.318H37.1514ZM49.4269 37.11L57.3469 26.22H58.3909V39H57.1309V28.29L49.3369 39H48.1849V26.22H49.4269V37.11ZM60.7677 32.52C60.7677 31.752 60.8997 30.99 61.1637 30.234C61.4397 29.466 61.8357 28.782 62.3517 28.182C62.8677 27.582 63.5037 27.096 64.2597 26.724C65.0157 26.34 65.8737 26.148 66.8337 26.148C67.9737 26.148 68.9457 26.406 69.7497 26.922C70.5657 27.438 71.1657 28.11 71.5497 28.938L70.5597 29.55C70.3557 29.13 70.1037 28.776 69.8037 28.488C69.5157 28.2 69.2037 27.966 68.8677 27.786C68.5317 27.606 68.1837 27.48 67.8237 27.408C67.4637 27.324 67.1097 27.282 66.7617 27.282C65.9937 27.282 65.3157 27.438 64.7277 27.75C64.1397 28.062 63.6417 28.47 63.2337 28.974C62.8377 29.478 62.5377 30.048 62.3337 30.684C62.1297 31.308 62.0277 31.944 62.0277 32.592C62.0277 33.3 62.1477 33.978 62.3877 34.626C62.6397 35.274 62.9757 35.85 63.3957 36.354C63.8277 36.846 64.3317 37.242 64.9077 37.542C65.4957 37.83 66.1317 37.974 66.8157 37.974C67.1757 37.974 67.5417 37.932 67.9137 37.848C68.2977 37.752 68.6637 37.608 69.0117 37.416C69.3717 37.212 69.7017 36.966 70.0017 36.678C70.3017 36.378 70.5537 36.018 70.7577 35.598L71.8017 36.138C71.5977 36.618 71.3097 37.044 70.9377 37.416C70.5657 37.776 70.1517 38.082 69.6957 38.334C69.2397 38.586 68.7537 38.778 68.2377 38.91C67.7337 39.042 67.2357 39.108 66.7437 39.108C65.8677 39.108 65.0637 38.916 64.3317 38.532C63.5997 38.148 62.9697 37.65 62.4417 37.038C61.9137 36.414 61.4997 35.712 61.1997 34.932C60.9117 34.14 60.7677 33.336 60.7677 32.52Z" fill="white"/>
</svg>
