<svg width="35" height="38" viewBox="0 0 35 38" fill="none" xmlns="http://www.w3.org/2000/svg">
<path d="M0 8.84531L15.3205 8.61287e-06V6.96966L5.74167 12.5V25.5L15.3205 31.0304V37.6906L0 28.8453V8.84531Z" fill="#E0E0E0"/>
<path d="M19.3205 30.6603V37.6906L34.641 28.8453V8.84531L26.9808 4.42266L19.3205 8.61287e-06V7.33976L28.2583 12.5V25.5L19.3205 30.6603Z" fill="#E0E0E0"/>
<path d="M0 8.84531L15.3205 8.61287e-06V6.96966L5.74167 12.5V25.5L15.3205 31.0304V37.6906L0 28.8453V8.84531Z" fill="#E0E0E0"/>
<path d="M0 8.84531L15.3205 8.61287e-06V6.96966L5.74167 12.5V25.5L15.3205 31.0304V37.6906L0 28.8453V8.84531Z" fill="#E0E0E0"/>
<path d="M0 8.84531L15.3205 8.61287e-06V6.96966L5.74167 12.5V25.5L15.3205 31.0304V37.6906L0 28.8453V8.84531Z" fill="#E0E0E0"/>
<path d="M0 8.84531L15.3205 8.61287e-06V6.96966L5.74167 12.5V25.5L15.3205 31.0304V37.6906L0 28.8453V8.84531Z" fill="#E0E0E0"/>
<path d="M0 8.84531L15.3205 8.61287e-06V6.96966L5.74167 12.5V25.5L15.3205 31.0304V37.6906L0 28.8453V8.84531Z" fill="#E0E0E0"/>
<path d="M0 8.84531L15.3205 8.61287e-06V6.96966L5.74167 12.5V25.5L15.3205 31.0304V37.6906L0 28.8453V8.84531Z" fill="#E0E0E0"/>
<path d="M0 8.84531L15.3205 8.61287e-06V6.96966L5.74167 12.5V25.5L15.3205 31.0304V37.6906L0 28.8453V8.84531Z" fill="#E0E0E0"/>
<path d="M0 8.8453L15.3205 0V6.96965L5.74167 12.5V25.5L15.3205 31.0303V37.6906L0 28.8453V8.8453Z" fill="#5A6BF7"/>
<path d="M0 8.8453L15.3205 0V6.96965L5.74167 12.5V25.5L15.3205 31.0303V37.6906L0 28.8453V8.8453Z" fill="#5A6BF7"/>
<path d="M0 8.8453L15.3205 0V6.96965L5.74167 12.5V25.5L15.3205 31.0303V37.6906L0 28.8453V8.8453Z" fill="#5A6BF7"/>
<path d="M0 8.8453L15.3205 0V6.96965L5.74167 12.5V25.5L15.3205 31.0303V37.6906L0 28.8453V8.8453Z" fill="#5A6BF7"/>
<path d="M0 8.8453L15.3205 0V6.96965L5.74167 12.5V25.5L15.3205 31.0303V37.6906L0 28.8453V8.8453Z" fill="#5A6BF7"/>
<path d="M0 8.8453L15.3205 0V6.96965L5.74167 12.5V25.5L15.3205 31.0303V37.6906L0 28.8453V8.8453Z" fill="#5A6BF7"/>
<path d="M0 8.8453L15.3205 0V6.96965L5.74167 12.5V25.5L15.3205 31.0303V37.6906L0 28.8453V8.8453Z" fill="#5A6BF7"/>
<path d="M0 8.8453L15.3205 0V6.96965L5.74167 12.5V25.5L15.3205 31.0303V37.6906L0 28.8453V8.8453Z" fill="#5A6BF7"/>
<path d="M19.3206 30.6603V37.6906L34.6411 28.8453V8.8453L26.9808 4.42265L19.3206 0V7.33975L28.2584 12.5V25.5L19.3206 30.6603Z" fill="#E0E0E0"/>
<path d="M17 10L24.7942 14.5V23.5L17 28L9.20577 23.5V14.5L17 10Z" fill="#181824"/>
</svg>
